<?xml version="1.0" encoding="utf-8"?>
<!-- Generator: Adobe Illustrator 19.1.0, SVG Export Plug-In . SVG Version: 6.00 Build 0)  -->
<svg version="1.1" id="Layer_1" xmlns="http://www.w3.org/2000/svg" xmlns:xlink="http://www.w3.org/1999/xlink" x="0px" y="0px"
	 viewBox="-308 -156 1756.5 612" style="enable-background:new -308 -156 1756.5 612;" xml:space="preserve">
<style type="text/css">
	.st0{display:none;}
	.st1{display:inline;fill:#FFFFFF;stroke:#25C1E8;stroke-width:19;stroke-miterlimit:10;}
	.st2{display:inline;fill:#FFFFFF;stroke:#25C1E8;stroke-width:11;stroke-miterlimit:10;}
	.st3{fill:#232B36;}
	.st4{fill:#4A7F8B;}
</style>
<g id="Layer_1_copy" class="st0">
	<circle class="st1" cx="603.6" cy="299.2" r="175"/>
	<path class="st2" d="M718.1,240.6c-8.1,3.6-16.8,6-26,7.1c9.3-5.6,16.5-14.5,19.9-25c-8.7,5.2-18.4,9-28.8,11
		c-8.3-8.8-20-14.3-33-14.3c-25,0-45.3,20.3-45.3,45.3c0,3.5,0.4,7,1.2,10.3c-37.6-1.9-71-19.9-93.3-47.3
		c-3.9,6.7-6.1,14.5-6.1,22.8c0,15.7,8,29.6,20.1,37.7c-7.4-0.2-14.4-2.3-20.5-5.7c0,0.2,0,0.4,0,0.6c0,21.9,15.6,40.2,36.3,44.4
		c-3.8,1-7.8,1.6-11.9,1.6c-2.9,0-5.8-0.3-8.5-0.8c5.8,18,22.5,31.1,42.3,31.4c-15.5,12.1-35,19.4-56.2,19.4
		c-3.7,0-7.3-0.2-10.8-0.6c20,12.8,43.8,20.3,69.4,20.3c83.3,0,128.8-69,128.8-128.8c0-2,0-3.9-0.1-5.9
		C704.4,257.7,712.1,249.7,718.1,240.6z"/>
</g>
<g>
	<path class="st3" d="M416.3-154.7L-291,86.8c-20.7,7.4-23.1,35.7-4.1,46.6l113.4,64.8c2.3,1.3,5.2,1.3,7.5-0.1L340.3-87.8
		c2.4-1.4,4.6,2.1,2.4,3.7L-92.2,237.6c-4.4,3.3-3.9,10,0.9,12.7l200.1,109.5c19.2,10.5,43.2,3.7,54.1-15.2l271.1-478
		C440.7-145.3,429.2-159.1,416.3-154.7z"/>
	<path class="st3" d="M-134,442.5c0,10.1,11,16.4,19.7,11.2L1.2,346L-134,273.8V442.5z"/>
</g>
<g>
	<path class="st4" d="M1428.9-154.7L721.6,86.8c-20.7,7.4-23.1,35.7-4.1,46.6l113.4,64.8c2.3,1.3,5.2,1.3,7.5-0.1l514.5-285.9
		c2.4-1.4,4.6,2.1,2.4,3.7L920.4,237.6c-4.4,3.3-3.9,10,0.9,12.7l200.1,109.5c19.2,10.5,43.2,3.7,54.1-15.2l271.1-478
		C1453.3-145.3,1441.8-159.1,1428.9-154.7z"/>
	<path class="st4" d="M878.6,442.5c0,10.1,11,16.4,19.7,11.2L1013.8,346l-135.2-72.2V442.5z"/>
</g>
</svg>
