<?xml version="1.0" encoding="utf-8"?>
<!-- Generator: Adobe Illustrator 19.1.0, SVG Export Plug-In . SVG Version: 6.00 Build 0)  -->
<svg version="1.1" id="Layer_1" xmlns="http://www.w3.org/2000/svg" xmlns:xlink="http://www.w3.org/1999/xlink" x="0px" y="0px"
	 viewBox="84 -156 1600 612" style="enable-background:new 84 -156 1600 612;" xml:space="preserve">
<style type="text/css">
	.st0{display:none;}
	.st1{display:inline;fill:#FFFFFF;stroke:#25C1E8;stroke-width:19;stroke-miterlimit:10;}
	.st2{display:inline;fill:#FFFFFF;stroke:#25C1E8;stroke-width:11;stroke-miterlimit:10;}
	.st3{fill:#232B36;}
	.st4{fill:#4A7F8B;}
</style>
<g id="Layer_1_1_">
	<g id="Layer_1_copy" class="st0">
		<circle class="st1" cx="606.6" cy="204.2" r="175"/>
		<path class="st2" d="M721.1,145.6c-8.1,3.6-16.8,6-26,7.1c9.3-5.6,16.5-14.5,19.9-25c-8.7,5.2-18.4,9-28.8,11
			c-8.3-8.8-20-14.3-33-14.3c-25,0-45.3,20.3-45.3,45.3c0,3.5,0.4,7,1.2,10.3c-37.6-1.9-71-19.9-93.3-47.3
			c-3.9,6.7-6.1,14.5-6.1,22.8c0,15.7,8,29.6,20.1,37.7c-7.4-0.2-14.4-2.3-20.5-5.7c0,0.2,0,0.4,0,0.6c0,21.9,15.6,40.2,36.3,44.4
			c-3.8,1-7.8,1.6-11.9,1.6c-2.9,0-5.8-0.3-8.5-0.8c5.8,18,22.5,31.1,42.3,31.4c-15.5,12.1-35,19.4-56.2,19.4
			c-3.7,0-7.3-0.2-10.8-0.6c20,12.8,43.8,20.3,69.4,20.3c83.3,0,128.8-69,128.8-128.8c0-2,0-3.9-0.1-5.9
			C707.4,162.7,715.1,154.7,721.1,145.6z"/>
	</g>
</g>
<g id="Layer_2">
	<g>
		<g>
			<path class="st3" d="M94.1,45.6h126V451h-126V45.6z M157.1-156c40.3,0,73,32.7,73,73s-32.7,73.1-73,73.1C116.7-9.9,84-42.6,84-83
				C84.1-123.2,116.7-156,157.1-156"/>
			<path class="st3" d="M299.2,45.6h120.9V101h1.7c16.8-31.9,57.9-65.5,119.2-65.5c127.6,0,151.2,84,151.2,193.1V451h-126V253.8
				c0-47-0.9-107.5-65.5-107.5c-65.6,0-75.6,51.2-75.6,104.1V451H299.2V45.6z"/>
		</g>
	</g>
</g>
<g id="Layer_2_1_">
	<g>
		<g>
			<path class="st4" d="M1084.9,45.6h126V451h-126V45.6z M1147.9-156c40.3,0,73,32.7,73,73s-32.7,73.1-73,73.1
				c-40.4,0-73.1-32.7-73.1-73.1C1074.9-123.2,1107.5-156,1147.9-156"/>
			<path class="st4" d="M1290,45.6h120.9V101h1.7c16.8-31.9,57.9-65.5,119.2-65.5c127.6,0,151.2,84,151.2,193.1V451h-126V253.8
				c0-47-0.9-107.5-65.5-107.5c-65.6,0-75.6,51.2-75.6,104.1V451H1290V45.6z"/>
		</g>
	</g>
</g>
</svg>
