<?xml version="1.0" encoding="utf-8"?>
<!-- Generator: Adobe Illustrator 19.1.0, SVG Export Plug-In . SVG Version: 6.00 Build 0)  -->
<svg version="1.1" id="Layer_1" xmlns="http://www.w3.org/2000/svg" xmlns:xlink="http://www.w3.org/1999/xlink" x="0px" y="0px"
	 viewBox="-308 -156 1812 612" style="enable-background:new -308 -156 1812 612;" xml:space="preserve">
<style type="text/css">
	.st0{display:none;fill:#232B36;}
	.st1{fill:#232B36;}
	.st2{display:none;fill:#4A7F8B;}
	.st3{fill:#4A7F8B;}
	.st4{display:none;}
	.st5{display:inline;fill:#FFFFFF;stroke:#25C1E8;stroke-width:19;stroke-miterlimit:10;}
	.st6{display:inline;fill:#FFFFFF;stroke:#25C1E8;stroke-width:11;stroke-miterlimit:10;}
</style>
<g id="Layer_1_1_">
	<path id="f" class="st0" d="M111.7,500.2V149.6h117.8l17.7-136.8H111.7v-87.3c0-39.7,10.9-66.5,67.9-66.5h72.3v-122.2
		c-12.6-1.7-55.7-5.4-105.6-5.4C41.7-268.6-29.5-204.8-29.5-88V12.8h-118.1v136.8h118.1v351h141.2V500.2z"/>
	<path class="st1" d="M441-82.9c-27.5,12.2-57,20.4-88.3,24.1c31.6-19,56-49.2,67.6-84.9c-29.5,17.7-62.5,30.6-97.8,37.3
		c-28.2-29.9-67.9-48.5-112-48.5C125.6-154.9,56.7-86,56.7-1.1c0,11.9,1.4,23.8,4.1,35c-127.6-6.4-241-67.6-316.7-160.6
		c-13.2,22.7-20.7,49.2-20.7,77.4c0,53.3,27.2,100.5,68.2,128c-25.1-0.7-48.9-7.8-69.6-19.3c0,0.7,0,1.4,0,2
		c0,74.3,53,136.5,123.2,150.7c-12.9,3.4-26.5,5.4-40.4,5.4c-9.8,0-19.7-1-28.9-2.7c19.7,61.1,76.4,105.6,143.6,106.6
		c-52.6,41.1-118.8,65.9-190.8,65.9c-12.6,0-24.8-0.7-36.7-2c67.9,43.4,148.7,68.9,235.6,68.9C210.4,454.2,364.8,220,364.8,17
		c0-6.8,0-13.2-0.3-20C394.5-24.9,420.6-52,441-82.9z"/>
</g>
<g id="Layer_1_2_">
	<path id="f_1_" class="st2" d="M1174.7,500.2V149.6h117.8l17.7-136.8h-135.5v-87.3c0-39.7,10.9-66.5,67.9-66.5h72.3v-122.2
		c-12.6-1.7-55.7-5.4-105.6-5.4c-104.6,0-175.8,63.8-175.8,180.6V12.8H915.4v136.8h118.1v351h141.2V500.2z"/>
	<path class="st3" d="M1504-82.9c-27.5,12.2-57,20.4-88.3,24.1c31.6-19,56-49.2,67.6-84.9c-29.5,17.7-62.5,30.6-97.8,37.3
		c-28.2-29.9-67.9-48.5-112-48.5c-84.9,0-153.8,68.9-153.8,153.8c0,11.9,1.4,23.8,4.1,35c-127.6-6.4-241-67.6-316.7-160.6
		c-13.2,22.7-20.7,49.2-20.7,77.4c0,53.3,27.2,100.5,68.2,128c-25.1-0.7-48.9-7.8-69.6-19.3c0,0.7,0,1.4,0,2
		c0,74.3,53,136.5,123.2,150.7c-12.9,3.4-26.5,5.4-40.4,5.4c-9.8,0-19.7-1-28.9-2.7c19.7,61.1,76.4,105.6,143.6,106.6
		c-52.6,41.1-118.8,65.9-190.8,65.9c-12.6,0-24.8-0.7-36.7-2c67.9,43.4,148.7,68.9,235.6,68.9c282.8,0,437.2-234.2,437.2-437.2
		c0-6.8,0-13.2-0.3-20C1457.5-24.9,1483.6-52,1504-82.9z"/>
</g>
<g id="Layer_1_copy" class="st4">
	<circle class="st5" cx="606.6" cy="204.2" r="175"/>
	<path class="st6" d="M721.1,145.6c-8.1,3.6-16.8,6-26,7.1c9.3-5.6,16.5-14.5,19.9-25c-8.7,5.2-18.4,9-28.8,11
		c-8.3-8.8-20-14.3-33-14.3c-25,0-45.3,20.3-45.3,45.3c0,3.5,0.4,7,1.2,10.3c-37.6-1.9-71-19.9-93.3-47.3
		c-3.9,6.7-6.1,14.5-6.1,22.8c0,15.7,8,29.6,20.1,37.7c-7.4-0.2-14.4-2.3-20.5-5.7c0,0.2,0,0.4,0,0.6c0,21.9,15.6,40.2,36.3,44.4
		c-3.8,1-7.8,1.6-11.9,1.6c-2.9,0-5.8-0.3-8.5-0.8c5.8,18,22.5,31.1,42.3,31.4c-15.5,12.1-35,19.4-56.2,19.4
		c-3.7,0-7.3-0.2-10.8-0.6c20,12.8,43.8,20.3,69.4,20.3c83.3,0,128.8-69,128.8-128.8c0-2,0-3.9-0.1-5.9
		C707.4,162.7,715.1,154.7,721.1,145.6z"/>
</g>
</svg>
