<?xml version="1.0" encoding="utf-8"?>
<!-- Generator: Adobe Illustrator 25.2.0, SVG Export Plug-In . SVG Version: 6.00 Build 0)  -->
<svg version="1.1" id="Layer_1" xmlns="http://www.w3.org/2000/svg" xmlns:xlink="http://www.w3.org/1999/xlink" x="0px" y="0px"
	 viewBox="0 0 24 24" style="enable-background:new 0 0 24 24;" xml:space="preserve">
<style type="text/css">
	.st0{fill:#231F20;}
</style>
<g transform="translate(0, 0)">
	<path class="st0" d="M16.2,7.8c-0.2-0.2-0.6-0.2-0.9,0l-3.9,3.9L7.5,7.8c-0.2-0.2-0.6-0.2-0.9,0s-0.2,0.6,0,0.9l3.9,3.9l-3.9,3.9
		c-0.2,0.2-0.2,0.6,0,0.9c0.1,0.1,0.2,0.2,0.4,0.2c0.2,0,0.3-0.1,0.4-0.2l3.9-3.9l3.9,3.9c0.1,0.1,0.3,0.2,0.4,0.2
		c0.1,0,0.3-0.1,0.4-0.2c0.2-0.2,0.2-0.6,0-0.9l-3.9-3.9l3.9-3.9C16.5,8.4,16.5,8,16.2,7.8z"/>
</g>
</svg>
